<?xml version="1.0" encoding="utf-8"?>
<!-- Generator: Adobe Illustrator 16.0.0, SVG Export Plug-In . SVG Version: 6.00 Build 0)  -->
<!DOCTYPE svg PUBLIC "-//W3C//DTD SVG 1.1//EN" "http://www.w3.org/Graphics/SVG/1.1/DTD/svg11.dtd">
<svg version="1.1" xmlns="http://www.w3.org/2000/svg" xmlns:xlink="http://www.w3.org/1999/xlink" x="0px" y="0px"
	 width="46.045px" height="49.648px" viewBox="0 0 46.045 49.648" enable-background="new 0 0 46.045 49.648" xml:space="preserve">
<g id="Grid" display="none" opacity="0.8">
	<rect x="-43.745" y="-1188.2" display="inline" opacity="0.1" fill="#28AAE2" width="51" height="2372.2"/>
	<rect x="37.255" y="-1188.2" display="inline" opacity="0.1" fill="#28AAE2" width="51" height="2372.2"/>
	<rect x="-205.745" y="-1188.2" display="inline" opacity="0.1" fill="#28AAE2" width="213" height="2372.2"/>
	<rect x="37.255" y="-1188.2" display="inline" opacity="0.1" fill="#28AAE2" width="213" height="2372.2"/>
</g>
<g id="Header" display="none">
</g>
<g id="Landingpage" display="none">
	<path display="inline" fill="#FFFFFF" d="M168.92,113c0,11.046-8.954,20-20,20h-253.714c-11.046,0-20-8.954-20-20V-5
		c0-11.046,8.954-20,20-20H148.92c11.046,0,20,8.954,20,20V113z"/>

		<path display="inline" fill="none" stroke="#3C3C3B" stroke-width="0.3" stroke-linecap="round" stroke-linejoin="round" stroke-miterlimit="10" stroke-dasharray="2" d="
		M163.427,109.588c0,10.407-8.437,18.844-18.844,18.844h-245.041c-10.407,0-18.843-8.437-18.843-18.844V-1.588
		c0-10.407,8.437-18.844,18.843-18.844h245.041c10.407,0,18.844,8.437,18.844,18.844V109.588z"/>
	<g display="inline">
		<path fill="#00B5F1" d="M19.728,9.205c1.422-0.855,2.928-1.508,4.532-1.954c1.61-0.444,3.258-0.668,4.953-0.668
			c2.108,0,4.12,0.329,6.026,0.992c1.905,0.663,3.643,1.627,5.218,2.889c0.66,0.619,1.413,0.933,2.263,0.933
			c0.93,0,1.724-0.313,2.36-0.933c0.639-0.62,0.965-1.407,0.965-2.359c0-0.933-0.293-1.689-0.867-2.266
			C40.39,1.945,35.07,0,29.213,0c-6.81,0-12.66,2.443-17.542,7.328c-2.809,2.81-4.776,5.963-5.956,9.44H3.263
			c-0.931,0-1.704,0.303-2.327,0.912C0.316,18.293,0,19.076,0,20.025c0,0.954,0.316,1.741,0.937,2.363
			c0.623,0.618,1.396,0.931,2.327,0.931h1.21c-0.026,0.506-0.067,1.002-0.067,1.521c0,0.496,0.041,0.977,0.066,1.461H3.263
			c-0.931,0-1.704,0.315-2.327,0.945C0.316,27.876,0,28.672,0,29.62c0,0.933,0.316,1.709,0.937,2.33
			c0.623,0.622,1.396,0.932,2.327,0.932h2.429c1.176,3.511,3.152,6.685,5.979,9.5c4.882,4.843,10.732,7.267,17.542,7.267
			c5.798,0,11.006-1.851,15.618-5.56c0.683-0.62,1.024-1.408,1.024-2.36c0-0.433-0.079-0.848-0.25-1.24
			c-0.164-0.392-0.401-0.744-0.71-1.057c-0.314-0.308-0.667-0.546-1.057-0.711c-0.392-0.169-0.819-0.25-1.269-0.25
			c-0.691,0-1.324,0.196-1.899,0.59c-3.308,2.668-7.129,4.004-11.458,4.004c-1.672,0-3.322-0.227-4.938-0.683
			c-1.613-0.453-3.137-1.11-4.56-1.967c-1.434-0.861-2.734-1.928-3.917-3.204c-1.174-1.27-2.168-2.716-2.98-4.329H38.81
			c0.932,0,1.704-0.304,2.324-0.915c0.621-0.611,0.938-1.392,0.938-2.347c0-0.948-0.317-1.737-0.938-2.359
			c-0.62-0.62-1.393-0.931-2.324-0.931H11.022c-0.085-0.994-0.085-1.986,0-2.98H38.81c0.932,0,1.704-0.317,2.324-0.947
			c0.621-0.631,0.938-1.423,0.938-2.377c0-0.928-0.317-1.706-0.938-2.329c-0.62-0.618-1.393-0.928-2.324-0.928H12.818
			c0.83-1.636,1.834-3.091,3.015-4.362C17.012,11.129,18.312,10.066,19.728,9.205z"/>
	</g>
</g>
<g id="INDIKATOR" display="none">
	<path display="inline" fill="#FFFFFF" d="M473.043-23h-19.788H219.329h-394.36h-225.714h-28c-11.046,0-20,8.954-20,20v58
		c0,11.046,8.954,20,20,20h28h225.714h394.36h233.926h19.788c11.046,0,20-8.954,20-20V-3C493.043-14.046,484.089-23,473.043-23z"/>

		<path display="inline" opacity="0.2" fill="#00B5F1" stroke="#3C3C3B" stroke-width="0.3" stroke-linecap="round" stroke-linejoin="round" stroke-miterlimit="10" stroke-dasharray="2" d="
		M-378.745-18.432h-45.664c-10.406,0-18.843,8.437-18.843,18.844v51.176c0,10.407,8.437,18.844,18.843,18.844h45.664h546.694
		v-88.863H-378.745z"/>

		<path display="inline" fill="none" stroke="#3C3C3B" stroke-width="0.3" stroke-linecap="round" stroke-linejoin="round" stroke-miterlimit="10" stroke-dasharray="2" d="
		M468.706-18.432h-39.451h-205.59h-403.033h-199.377h-45.664c-10.406,0-18.843,8.437-18.843,18.844v51.176
		c0,10.407,8.437,18.844,18.843,18.844h45.664h199.377h403.033h205.59h39.451c10.407,0,18.844-8.437,18.844-18.844V0.412
		C487.55-9.995,479.113-18.432,468.706-18.432z"/>
	<g display="inline">
		<rect x="-449.563" y="18.068" fill="none" width="940.804" height="49.994"/>
		<text transform="matrix(1 0 0 1 -114.5884 34.833)" fill="#414042" font-family="'RobotoCondensed-Regular'" font-size="22">Transparenz des Waffenexports</text>
	</g>
</g>
<g id="SUBINDIKATOR" display="none">
	<path display="inline" fill="#FFFFFF" d="M473.255-743.824h-19.788h-720.822h92.324h-225.714h-28c-11.046,0-20,8.954-20,20v905.938
		c0,11.046,8.954,20,20,20h28h225.714h-92.324h720.822h19.788c11.046,0,20-8.954,20-20v-905.938
		C493.255-734.87,484.301-743.824,473.255-743.824z"/>

		<path display="inline" fill="none" stroke="#3C3C3B" stroke-width="0.3" stroke-linecap="round" stroke-linejoin="round" stroke-miterlimit="10" stroke-dasharray="2" d="
		M-263.02,197.546h205.59h526.348c10.407,0,18.844-8.437,18.844-18.844v-899.114c0-10.407-8.437-18.844-18.844-18.844H-57.43
		h-205.59h-115.726h-45.664c-10.406,0-18.843,8.437-18.843,18.844v899.114c0,10.407,8.437,18.844,18.843,18.844h45.664H-263.02z"/>
</g>
<g id="EXPERTEN" display="none">
	<path display="inline" fill="#FFFFFF" d="M37.255-49.702v321h456v-321H37.255z M267.725,92.869
		c-34.005,0-61.571-27.566-61.571-61.571s27.566-61.571,61.571-61.571s61.571,27.566,61.571,61.571S301.729,92.869,267.725,92.869z"
		/>
	<path display="inline" fill="#FFFFFF" d="M-448.745-49.702v321h456v-321H-448.745z M-221.61,92.869
		c-34.005,0-61.571-27.566-61.571-61.571s27.566-61.571,61.571-61.571s61.571,27.566,61.571,61.571S-187.605,92.869-221.61,92.869z"
		/>
</g>
<g id="INTERVIEW" display="none">
	<path display="inline" fill="#FFFFFF" d="M473.043-66.1h-19.788H219.329h-394.36h-225.714h-28c-11.046,0-20,8.954-20,20v58
		c0,11.046,8.954,20,20,20h28h225.714h394.36h233.926h19.788c11.046,0,20-8.954,20-20v-58C493.043-57.146,484.089-66.1,473.043-66.1
		z"/>

		<path display="inline" fill="none" stroke="#3C3C3B" stroke-width="0.3" stroke-linecap="round" stroke-linejoin="round" stroke-miterlimit="10" stroke-dasharray="2" d="
		M468.706-61.531h-39.451h-205.59h-403.033h-199.377h-45.664c-10.406,0-18.843,8.437-18.843,18.844V8.488
		c0,10.407,8.437,18.844,18.843,18.844h45.664h199.377h403.033h205.59h39.451c10.407,0,18.844-8.437,18.844-18.844v-51.176
		C487.55-53.095,479.113-61.531,468.706-61.531z"/>
	<g display="inline">
		<rect x="-369.563" y="-25.031" fill="none" width="940.804" height="49.994"/>
		<text transform="matrix(1 0 0 1 -369.5635 -8.2666)" fill="#00B5F1" font-family="'RobotoCondensed-Regular'" font-size="22">Welches sind die größten Datenlücken im Sicherheitsbereich?</text>
	</g>
</g>
<g id="Icons">
	<g>
		<path fill="#00B5F1" d="M19.728,9.205c1.422-0.855,2.928-1.508,4.532-1.954c1.61-0.444,3.258-0.668,4.953-0.668
			c2.108,0,4.12,0.329,6.026,0.992c1.905,0.663,3.643,1.627,5.218,2.889c0.66,0.619,1.413,0.933,2.263,0.933
			c0.93,0,1.724-0.313,2.36-0.933c0.639-0.62,0.965-1.407,0.965-2.359c0-0.933-0.293-1.689-0.867-2.266
			C40.39,1.945,35.07,0,29.213,0c-6.81,0-12.66,2.443-17.542,7.328c-2.809,2.81-4.776,5.963-5.956,9.44H3.263
			c-0.931,0-1.704,0.303-2.327,0.912C0.316,18.293,0,19.076,0,20.025c0,0.954,0.316,1.741,0.937,2.363
			c0.623,0.618,1.396,0.931,2.327,0.931h1.21c-0.026,0.506-0.067,1.002-0.067,1.521c0,0.496,0.041,0.977,0.066,1.461H3.263
			c-0.931,0-1.704,0.315-2.327,0.945C0.316,27.876,0,28.672,0,29.62c0,0.933,0.316,1.709,0.937,2.33
			c0.623,0.622,1.396,0.932,2.327,0.932h2.429c1.176,3.511,3.152,6.685,5.979,9.5c4.882,4.843,10.732,7.267,17.542,7.267
			c5.798,0,11.006-1.851,15.618-5.56c0.683-0.62,1.024-1.408,1.024-2.36c0-0.433-0.079-0.848-0.25-1.24
			c-0.164-0.392-0.401-0.744-0.71-1.057c-0.314-0.308-0.667-0.546-1.057-0.711c-0.392-0.169-0.819-0.25-1.269-0.25
			c-0.691,0-1.324,0.196-1.899,0.59c-3.308,2.668-7.129,4.004-11.458,4.004c-1.672,0-3.322-0.227-4.938-0.683
			c-1.613-0.453-3.137-1.11-4.56-1.967c-1.434-0.861-2.734-1.928-3.917-3.204c-1.174-1.27-2.168-2.716-2.98-4.329H38.81
			c0.932,0,1.704-0.304,2.324-0.915c0.621-0.611,0.938-1.392,0.938-2.347c0-0.948-0.317-1.737-0.938-2.359
			c-0.62-0.62-1.393-0.931-2.324-0.931H11.022c-0.085-0.994-0.085-1.986,0-2.98H38.81c0.932,0,1.704-0.317,2.324-0.947
			c0.621-0.631,0.938-1.423,0.938-2.377c0-0.928-0.317-1.706-0.938-2.329c-0.62-0.618-1.393-0.928-2.324-0.928H12.818
			c0.83-1.636,1.834-3.091,3.015-4.362C17.012,11.129,18.312,10.066,19.728,9.205z"/>
	</g>
</g>
</svg>
