<?xml version="1.0" encoding="utf-8"?>
<!-- Generator: Adobe Illustrator 16.0.0, SVG Export Plug-In . SVG Version: 6.00 Build 0)  -->
<!DOCTYPE svg PUBLIC "-//W3C//DTD SVG 1.1//EN" "http://www.w3.org/Graphics/SVG/1.1/DTD/svg11.dtd">
<svg version="1.1" xmlns="http://www.w3.org/2000/svg" xmlns:xlink="http://www.w3.org/1999/xlink" x="0px" y="0px"
	 width="112.047px" height="47.903px" viewBox="0 0 112.047 47.903" enable-background="new 0 0 112.047 47.903"
	 xml:space="preserve">
<g id="Grid" display="none" opacity="0.8">
	<rect x="-2.566" y="-1014.287" display="inline" opacity="0.1" fill="#28AAE2" width="51" height="2372.2"/>
	<rect x="78.434" y="-1014.287" display="inline" opacity="0.1" fill="#28AAE2" width="51" height="2372.2"/>
	<rect x="-2.566" y="-1014.287" display="inline" opacity="0.1" fill="#28AAE2" width="213" height="2372.2"/>
</g>
<g id="Header" display="none">
</g>
<g id="Landingpage" display="none">
	<path display="inline" fill="#FFFFFF" d="M210.222,108.913c0,11.046-8.954,20-20,20H-63.492c-11.046,0-20-8.954-20-20v-118
		c0-11.046,8.954-20,20-20h253.714c11.046,0,20,8.954,20,20V108.913z"/>

		<path display="inline" fill="none" stroke="#3C3C3B" stroke-width="0.3" stroke-linecap="round" stroke-linejoin="round" stroke-miterlimit="10" stroke-dasharray="2" d="
		M204.729,105.501c0,10.407-8.437,18.844-18.844,18.844H-59.156c-10.406,0-18.843-8.437-18.843-18.844V-5.675
		c0-10.407,8.437-18.844,18.843-18.844h245.041c10.407,0,18.844,8.437,18.844,18.844V105.501z"/>
	<g display="inline">
		<path fill="#00AEEF" d="M57.416,15.438c-1.866-1.456-4.033-2.541-6.281-3.017c-2.518-0.648-4.73-1.017-6.859-1.171
			c-4.189-0.294-7.461,0.281-8.511,0.432c-1.053,0.173-2.955,0.456-5.229,0.847c-2.248,0.438-5.025,0.843-7.539,0.907
			c-5.086,0.257-9.562-0.068-9.557-0.075c-0.009,0.007,4.513-0.2,9.501-0.975c2.544-0.338,5.007-0.946,7.283-1.587
			c2.254-0.589,4.195-1.011,5.292-1.19C37.58,9.323,49.588,6.782,59.4,13.054c2.343,1.678,4.266,3.662,5.845,5.632
			c0.973-1.147,2.003-2.944,1.476-5.093c-0.916-3.74-6.26-13.706-20.848-13.592C31.289,0.11,18.61,7.666,11.477,9.087
			C4.346,10.505,0,7.965,0,7.965s23.889,35.748,58.916,22.171c3.789-2.111,5.297-4.191,5.754-5.912
			C63.039,21.372,60.67,17.98,57.416,15.438z"/>
		<path fill="#00AEEF" d="M60.337,16.391c0,0,6.791,6.12,7.479,15.23c0.695,9.112-2.496,16.282-2.496,16.282
			s6.093-8.989,5.453-17.426C70.131,22.04,60.337,16.391,60.337,16.391z"/>
		<path fill="#00AEEF" d="M30.224,10.799c2.254-0.589,4.195-1.011,5.292-1.19c1.738-0.24,10.535-2.062,19.132,1.115
			c1.607,0.594,3.208,1.341,4.753,2.33c2.343,1.678,4.266,3.662,5.845,5.632c0.973-1.147,2.003-2.944,1.476-5.093
			c-0.236-0.962-0.771-2.336-1.675-3.843c-2.604-4.356-8.334-9.834-19.173-9.749C31.289,0.11,18.61,7.666,11.477,9.087
			C4.346,10.505,0,7.965,0,7.965s13.798,20.64,35.792,24.593c6.95,1.251,14.715,0.839,23.124-2.422
			c3.789-2.111,5.297-4.191,5.754-5.912c-1.631-2.852-4-6.243-7.254-8.786c-1.866-1.456-4.033-2.541-6.281-3.017
			c-0.182-0.048-0.354-0.083-0.535-0.127c-2.294-0.564-4.354-0.902-6.324-1.044c-4.189-0.294-7.461,0.281-8.511,0.432
			c-1.053,0.173-2.955,0.456-5.229,0.847c-2.248,0.438-5.025,0.843-7.539,0.907c-5.086,0.257-9.562-0.068-9.557-0.075
			c-0.009,0.007,4.513-0.2,9.501-0.975C25.484,12.048,27.947,11.439,30.224,10.799z"/>
		<path fill="#00AEEF" d="M75.956,24.295c1.175-0.915,2.537-1.597,3.948-1.898c1.586-0.408,2.976-0.637,4.313-0.733
			c2.631-0.185,4.688,0.176,5.348,0.272c0.664,0.108,1.859,0.287,3.29,0.531c1.411,0.275,3.156,0.529,4.736,0.568
			c3.198,0.162,6.012-0.041,6.005-0.047c0.008,0.006-2.834-0.125-5.971-0.611c-1.599-0.213-3.146-0.593-4.578-0.996
			c-1.416-0.371-2.635-0.64-3.323-0.75c-1.299-0.178-8.848-1.777-15.017,2.165c-1.472,1.057-2.682,2.301-3.673,3.538
			c-0.61-0.721-1.259-1.849-0.926-3.196c0.577-2.353,3.933-8.617,13.102-8.547c9.171,0.072,17.135,4.819,21.62,5.712
			c4.484,0.893,7.216-0.708,7.216-0.708S97.028,42.067,75.015,33.533c-2.382-1.325-3.33-2.634-3.614-3.715
			C72.425,28.024,73.913,25.896,75.956,24.295z"/>
	</g>
</g>
<g id="INDIKATOR" display="none">
	<path display="inline" fill="#FFFFFF" d="M190.222-69.087h-19.788H-63.492h-394.36h-225.714h-28c-11.046,0-20,8.954-20,20v58
		c0,11.046,8.954,20,20,20h28h225.714h394.36h233.926h19.788c11.046,0,20-8.954,20-20v-58
		C210.222-60.133,201.268-69.087,190.222-69.087z"/>
	<path display="inline" fill="#FFFFFF" d="M190.222,40.913h-19.788H-63.492h-394.36h-225.714h-28c-11.046,0-20,8.954-20,20v58
		c0,11.046,8.954,20,20,20h28h225.714h394.36h233.926h19.788c11.046,0,20-8.954,20-20v-58
		C210.222,49.867,201.268,40.913,190.222,40.913z"/>

		<path display="inline" opacity="0.2" fill="#00B5F1" stroke="#3C3C3B" stroke-width="0.3" stroke-linecap="round" stroke-linejoin="round" stroke-miterlimit="10" stroke-dasharray="2" d="
		M-661.566-64.519h-45.664c-10.406,0-18.843,8.437-18.843,18.844V5.501c0,10.407,8.437,18.844,18.843,18.844h45.664h746v-88.863
		H-661.566z"/>

		<path display="inline" fill="none" stroke="#3C3C3B" stroke-width="0.3" stroke-linecap="round" stroke-linejoin="round" stroke-miterlimit="10" stroke-dasharray="2" d="
		M185.885-64.519h-39.451h-205.59h-403.033h-199.377h-45.664c-10.406,0-18.843,8.437-18.843,18.844V5.501
		c0,10.407,8.437,18.844,18.843,18.844h45.664h199.377h403.033h205.59h39.451c10.407,0,18.844-8.437,18.844-18.844v-51.176
		C204.729-56.082,196.292-64.519,185.885-64.519z"/>

		<path display="inline" fill="none" stroke="#3C3C3B" stroke-width="0.3" stroke-linecap="round" stroke-linejoin="round" stroke-miterlimit="10" stroke-dasharray="2" d="
		M185.885,45.481h-39.451h-205.59h-403.033h-199.377h-45.664c-10.406,0-18.843,8.437-18.843,18.844v51.176
		c0,10.407,8.437,18.844,18.843,18.844h45.664h199.377h403.033h205.59h39.451c10.407,0,18.844-8.437,18.844-18.844V64.325
		C204.729,53.918,196.292,45.481,185.885,45.481z"/>
	<g display="inline">
		<rect x="-732.385" y="-27.352" fill="none" width="940.804" height="49.994"/>
		<text transform="matrix(1 0 0 1 -460.896 -10.5879)" fill="#414042" font-family="'RobotoCondensed-Regular'" font-size="22">Waffenexporte in nicht-demokratische Staaten</text>
	</g>
</g>
<g id="SUBINDIKATOR" display="none">
	<path display="inline" fill="#FFFFFF" d="M190.434-569.911h-19.788h-720.822h92.324h-225.714h-28c-11.046,0-20,8.954-20,20v905.938
		c0,11.046,8.954,20,20,20h28h225.714h-92.324h720.822h19.788c11.046,0,20-8.954,20-20v-905.938
		C210.434-560.957,201.479-569.911,190.434-569.911z"/>

		<path display="inline" fill="none" stroke="#3C3C3B" stroke-width="0.3" stroke-linecap="round" stroke-linejoin="round" stroke-miterlimit="10" stroke-dasharray="2" d="
		M-545.841,371.459h205.59h526.348c10.407,0,18.844-8.437,18.844-18.844v-899.114c0-10.407-8.437-18.844-18.844-18.844h-526.348
		h-205.59h-115.726h-45.664c-10.406,0-18.843,8.437-18.843,18.844v899.114c0,10.407,8.437,18.844,18.843,18.844h45.664H-545.841z"/>
</g>
<g id="EXPERTEN" display="none">
</g>
<g id="INTERVIEW" display="none">
	<g display="inline">
		<rect x="-650.399" y="-184.491" fill="none" width="776.833" height="311.404"/>
		<text transform="matrix(1 0 0 1 -650.3994 -172.2998)"><tspan x="0" y="0" fill="#414042" font-family="'RobotoCondensed-Regular'" font-size="16">Weit hinten, hinter den Wortbergen, fern der Länder Vokalien und Konsonantien leben die Blindtexte. Abgeschieden wohnen </tspan><tspan x="0" y="24" fill="#414042" font-family="'RobotoCondensed-Regular'" font-size="16">sie in Buchstabhausen an der Küste des Semantik, eines großen Sprachozeans. Ein kleines Bächlein namens Duden fließt </tspan><tspan x="0" y="48" fill="#414042" font-family="'RobotoCondensed-Regular'" font-size="16">durch ihren Ort und versorgt sie mit den nötigen Regelialien. Es ist ein paradiesmatisches Land, in dem einem gebratene </tspan><tspan x="0" y="72" fill="#414042" font-family="'RobotoCondensed-Regular'" font-size="16">Satzteile in den Mund fliegen. Nicht einmal von der allmächtigen Interpunktion werden die Blindtexte beherrscht – ein gera</tspan><tspan x="758.938" y="72" fill="#414042" font-family="'RobotoCondensed-Regular'" font-size="16">-</tspan><tspan x="0" y="96" fill="#414042" font-family="'RobotoCondensed-Regular'" font-size="16">dezu unorthographisches Leben. Eines Tages aber beschloß eine kleine Zeile Blindtext, ihr Name war Lorem Ipsum, hinaus zu </tspan><tspan x="0" y="120" fill="#414042" font-family="'RobotoCondensed-Regular'" font-size="16">gehen in die weite Grammatik. Der große Oxmox riet ihr davon ab, da es dort wimmele von bösen Kommata, wilden Fragezei</tspan><tspan x="764.094" y="120" fill="#414042" font-family="'RobotoCondensed-Regular'" font-size="16">-</tspan><tspan x="0" y="144" fill="#414042" font-family="'RobotoCondensed-Regular'" font-size="16">chen und hinterhältigen Semikoli, doch das Blindtextchen ließ sich nicht beirren. Es packte seine sieben Versalien, schob sich </tspan><tspan x="0" y="168" fill="#414042" font-family="'RobotoCondensed-Regular'" font-size="16">sein Initial in den Gürtel und machte sich auf den Weg. Als es die ersten Hügel des Kursivgebirges erklommen hatte, warf es </tspan><tspan x="0" y="192" fill="#414042" font-family="'RobotoCondensed-Regular'" font-size="16">einen letzten Blick zurück auf die Skyline seiner Heimatstadt Buchstabhausen, die Headline von Alphabetdorf und die Subline </tspan><tspan x="0" y="216" fill="#414042" font-family="'RobotoCondensed-Regular'" font-size="16">seiner eigenen Straße, der Zeilengasse. Wehmütig lief ihm eine rhetorische Frage über die Wange, dann setzte es seinen Weg </tspan><tspan x="0" y="240" fill="#414042" font-family="'RobotoCondensed-Regular'" font-size="16">fort. Unterwegs traf es eine Copy. Die Copy warnte das Blindtextchen, da, wo sie herkäme wäre sie</tspan></text>
	</g>
</g>
<g id="Icons">
	<g>
		<path fill="#00AEEF" d="M57.416,15.438c-1.866-1.456-4.033-2.541-6.281-3.017c-2.518-0.648-4.73-1.017-6.859-1.171
			c-4.189-0.294-7.461,0.281-8.511,0.432c-1.053,0.173-2.955,0.456-5.229,0.847c-2.248,0.438-5.025,0.843-7.539,0.907
			c-5.086,0.257-9.562-0.068-9.557-0.075c-0.009,0.007,4.513-0.2,9.501-0.975c2.544-0.338,5.007-0.946,7.283-1.587
			c2.254-0.589,4.195-1.011,5.292-1.19C37.58,9.323,49.588,6.782,59.4,13.054c2.343,1.678,4.266,3.662,5.845,5.632
			c0.973-1.147,2.003-2.944,1.476-5.093c-0.916-3.74-6.26-13.706-20.848-13.592C31.289,0.11,18.61,7.666,11.477,9.087
			C4.346,10.505,0,7.965,0,7.965s23.889,35.748,58.916,22.171c3.789-2.111,5.297-4.191,5.754-5.912
			C63.039,21.372,60.67,17.98,57.416,15.438z"/>
		<path fill="#00AEEF" d="M60.337,16.391c0,0,6.791,6.12,7.479,15.23c0.695,9.112-2.496,16.282-2.496,16.282
			s6.093-8.989,5.453-17.426C70.131,22.04,60.337,16.391,60.337,16.391z"/>
		<path fill="#00AEEF" d="M30.224,10.799c2.254-0.589,4.195-1.011,5.292-1.19c1.738-0.24,10.535-2.062,19.132,1.115
			c1.607,0.594,3.208,1.341,4.753,2.33c2.343,1.678,4.266,3.662,5.845,5.632c0.973-1.147,2.003-2.944,1.476-5.093
			c-0.236-0.962-0.771-2.336-1.675-3.843c-2.604-4.356-8.334-9.834-19.173-9.749C31.289,0.11,18.61,7.666,11.477,9.087
			C4.346,10.505,0,7.965,0,7.965s13.798,20.64,35.792,24.593c6.95,1.251,14.715,0.839,23.124-2.422
			c3.789-2.111,5.297-4.191,5.754-5.912c-1.631-2.852-4-6.243-7.254-8.786c-1.866-1.456-4.033-2.541-6.281-3.017
			c-0.182-0.048-0.354-0.083-0.535-0.127c-2.294-0.564-4.354-0.902-6.324-1.044c-4.189-0.294-7.461,0.281-8.511,0.432
			c-1.053,0.173-2.955,0.456-5.229,0.847c-2.248,0.438-5.025,0.843-7.539,0.907c-5.086,0.257-9.562-0.068-9.557-0.075
			c-0.009,0.007,4.513-0.2,9.501-0.975C25.484,12.048,27.947,11.439,30.224,10.799z"/>
		<path fill="#00AEEF" d="M75.956,24.295c1.175-0.915,2.537-1.597,3.948-1.898c1.586-0.408,2.976-0.637,4.313-0.733
			c2.631-0.185,4.688,0.176,5.348,0.272c0.664,0.108,1.859,0.287,3.29,0.531c1.411,0.275,3.156,0.529,4.736,0.568
			c3.198,0.162,6.012-0.041,6.005-0.047c0.008,0.006-2.834-0.125-5.971-0.611c-1.599-0.213-3.146-0.593-4.578-0.996
			c-1.416-0.371-2.635-0.64-3.323-0.75c-1.299-0.178-8.848-1.777-15.017,2.165c-1.472,1.057-2.682,2.301-3.673,3.538
			c-0.61-0.721-1.259-1.849-0.926-3.196c0.577-2.353,3.933-8.617,13.102-8.547c9.171,0.072,17.135,4.819,21.62,5.712
			c4.484,0.893,7.216-0.708,7.216-0.708S97.028,42.067,75.015,33.533c-2.382-1.325-3.33-2.634-3.614-3.715
			C72.425,28.024,73.913,25.896,75.956,24.295z"/>
	</g>
</g>
</svg>
