<?xml version="1.0" encoding="utf-8"?>
<!-- Generator: Adobe Illustrator 16.0.0, SVG Export Plug-In . SVG Version: 6.00 Build 0)  -->
<!DOCTYPE svg PUBLIC "-//W3C//DTD SVG 1.1//EN" "http://www.w3.org/Graphics/SVG/1.1/DTD/svg11.dtd">
<svg version="1.1" xmlns="http://www.w3.org/2000/svg" xmlns:xlink="http://www.w3.org/1999/xlink" x="0px" y="0px"
	 width="399.605px" height="103.328px" viewBox="0 0 399.605 103.328" enable-background="new 0 0 399.605 103.328"
	 xml:space="preserve">
<g id="Grid" display="none" opacity="0.8">
	<rect x="22.584" y="-90.273" display="inline" opacity="0.1" fill="#28AAE2" width="51" height="2372.2"/>
	<rect x="103.584" y="-90.273" display="inline" opacity="0.1" fill="#28AAE2" width="51" height="2372.2"/>
	<rect x="184.584" y="-90.273" display="inline" opacity="0.1" fill="#28AAE2" width="51" height="2372.2"/>
	<rect x="265.584" y="-90.273" display="inline" opacity="0.1" fill="#28AAE2" width="51" height="2372.2"/>
	<rect x="346.584" y="-90.273" display="inline" opacity="0.1" fill="#28AAE2" width="51" height="2372.2"/>
	<rect x="22.584" y="-90.273" display="inline" opacity="0.1" fill="#28AAE2" width="213" height="2372.2"/>
	<rect x="265.584" y="-90.273" display="inline" opacity="0.1" fill="#28AAE2" width="213" height="2372.2"/>
</g>
<g id="Header" display="none">
	<g display="inline">
		<rect x="-219.415" y="-24.483" fill="none" width="399.605" height="36.806"/>
		<text transform="matrix(1 0 0 1 -219.415 -9.2441)" fill="#414042" font-family="'RobotoCondensed-Regular'" font-size="20">ENTWICKLUNGSBAR           METER</text>
	</g>
	<rect x="321.473" y="-24.483" display="inline" fill="none" width="400.111" height="37.35"/>
	<text transform="matrix(1 0 0 1 418.9575 -9.2437)" display="inline"><tspan x="0" y="0" fill="#00B5F1" font-family="'RobotoCondensed-Regular'" font-size="20">INDIKATOREN</tspan><tspan x="110.352" y="0" fill="#3C3C3B" font-family="'RobotoCondensed-Regular'" font-size="20">    </tspan><tspan x="127.773" y="0" fill="#414042" font-family="'RobotoCondensed-Regular'" font-size="20">EXPERTEN   KONTAKT</tspan></text>

		<line display="inline" fill="none" stroke="#3C3C3B" stroke-width="0.3" stroke-linecap="round" stroke-linejoin="round" stroke-miterlimit="10" stroke-dasharray="2" x1="-14.4" y1="12.866" x2="823.584" y2="12.866"/>
</g>
<g id="Landingpage" display="none">
	<g display="inline">
		<rect x="-322.416" y="48.413" fill="none" width="1146" height="138.812"/>
		<text transform="matrix(1 0 0 1 -34.811 71.2729)"><tspan x="0" y="0" fill="#00B5F1" font-family="'Roboto-Regular'" font-size="30">In der deutschen Politik gibt es viele Hebel </tspan><tspan x="88.528" y="36" fill="#00B5F1" font-family="'Roboto-Regular'" font-size="30">globale Armut zu bekämpfen, </tspan><tspan x="116.843" y="72" fill="#00B5F1" font-family="'Roboto-Regular'" font-size="30">aber werden sie genutzt?</tspan></text>
	</g>
</g>
<g id="INDIKATOR" display="none">
	<g display="inline">
		<polygon fill="#00B5F1" points="206.726,69.861 206.726,81.795 209.03,81.795 209.035,81.795 209.035,75.829 209.035,69.861
			209.03,69.861 		"/>
		<rect x="203.457" y="69.861" fill="#00B5F1" width="3.269" height="11.935"/>
		<polygon fill="#00B5F1" points="202.781,100.419 221.699,100.419 227.703,82.523 208.274,84.051 		"/>
		<polygon fill="#00B5F1" points="227.947,69.866 227.947,69.861 209.035,69.861 209.035,75.829 209.035,81.795 227.947,81.795
			241.618,91.344 241.618,60.314 		"/>
		<path fill="#00B5F1" d="M296.29,75.831c0,0,0,0,0-0.002c0-0.209-0.009-0.419-0.016-0.622c-0.002-0.059-0.002-0.117-0.005-0.176
			c-0.009-0.167-0.024-0.33-0.038-0.496c-0.007-0.099-0.014-0.195-0.021-0.293c-0.027-0.26-0.06-0.521-0.1-0.774v-0.002
			c-0.032-0.206-0.07-0.409-0.109-0.614c-0.009-0.048-0.018-0.101-0.029-0.151c-0.038-0.188-0.084-0.375-0.127-0.561
			c-0.016-0.061-0.027-0.128-0.045-0.19c-0.048-0.186-0.103-0.369-0.157-0.55c-0.018-0.063-0.033-0.126-0.052-0.188
			c-0.062-0.196-0.129-0.392-0.197-0.583c-0.019-0.045-0.032-0.091-0.045-0.136c-0.608-1.656-1.49-3.179-2.588-4.516
			c-0.004-0.01-0.014-0.017-0.018-0.022c-1.54-1.867-3.51-3.364-5.75-4.349c-0.066-0.028-0.127-0.057-0.19-0.085
			c-0.449-0.19-0.909-0.358-1.379-0.504c-0.016-0.003-0.029-0.012-0.048-0.017c-1.174-0.366-2.412-0.593-3.688-0.668
			c-0.309-0.018-0.619-0.032-0.932-0.032v31.065C289.335,91.361,296.29,84.405,296.29,75.831z"/>
		<polygon fill="#00B5F1" points="221.699,51.236 202.781,51.236 208.274,67.607 227.703,69.133 		"/>
		<rect x="242.609" y="60.296" fill="#00B5F1" width="36.472" height="31.065"/>
		<polygon fill="#00B5F1" points="227.947,69.152 227.703,69.133 227.947,69.861 		"/>
		<rect x="203.457" y="69.525" fill="#00B5F1" width="3.269" height="0.335"/>
		<polygon fill="#00B5F1" points="227.947,82.501 227.947,81.795 227.703,82.523 		"/>
		<rect x="203.457" y="81.795" fill="#00B5F1" width="3.269" height="0.333"/>
	</g>
</g>
<g id="SUBINDIKATOR" display="none">
	<g display="inline">
		<polygon fill="#00B5F1" points="206.726,69.861 206.726,81.795 209.03,81.795 209.035,81.795 209.035,75.829 209.035,69.861
			209.03,69.861 		"/>
		<rect x="203.457" y="69.861" fill="#00B5F1" width="3.269" height="11.935"/>
		<polygon fill="#00B5F1" points="202.781,100.419 221.699,100.419 227.703,82.523 208.274,84.051 		"/>
		<polygon fill="#00B5F1" points="227.947,69.866 227.947,69.861 209.035,69.861 209.035,75.829 209.035,81.795 227.947,81.795
			241.618,91.344 241.618,60.314 		"/>
		<path fill="#00B5F1" d="M296.29,75.831c0,0,0,0,0-0.002c0-0.209-0.009-0.419-0.016-0.622c-0.002-0.059-0.002-0.117-0.005-0.176
			c-0.009-0.167-0.024-0.33-0.038-0.496c-0.007-0.099-0.014-0.195-0.021-0.293c-0.027-0.26-0.06-0.521-0.1-0.774v-0.002
			c-0.032-0.206-0.07-0.409-0.109-0.614c-0.009-0.048-0.018-0.101-0.029-0.151c-0.038-0.188-0.084-0.375-0.127-0.561
			c-0.016-0.061-0.027-0.128-0.045-0.19c-0.048-0.186-0.103-0.369-0.157-0.55c-0.018-0.063-0.033-0.126-0.052-0.188
			c-0.062-0.196-0.129-0.392-0.197-0.583c-0.019-0.045-0.032-0.091-0.045-0.136c-0.608-1.656-1.49-3.179-2.588-4.516
			c-0.004-0.01-0.014-0.017-0.018-0.022c-1.54-1.867-3.51-3.364-5.75-4.349c-0.066-0.028-0.127-0.057-0.19-0.085
			c-0.449-0.19-0.909-0.358-1.379-0.504c-0.016-0.003-0.029-0.012-0.048-0.017c-1.174-0.366-2.412-0.593-3.688-0.668
			c-0.309-0.018-0.619-0.032-0.932-0.032v31.065C289.335,91.361,296.29,84.405,296.29,75.831z"/>
		<polygon fill="#00B5F1" points="221.699,51.236 202.781,51.236 208.274,67.607 227.703,69.133 		"/>
		<rect x="242.609" y="60.296" fill="#00B5F1" width="36.472" height="31.065"/>
		<polygon fill="#00B5F1" points="227.947,69.152 227.703,69.133 227.947,69.861 		"/>
		<rect x="203.457" y="69.525" fill="#00B5F1" width="3.269" height="0.335"/>
		<polygon fill="#00B5F1" points="227.947,82.501 227.947,81.795 227.703,82.523 		"/>
		<rect x="203.457" y="81.795" fill="#00B5F1" width="3.269" height="0.333"/>
	</g>
</g>
<g id="EXPERTEN" display="none">
	<rect x="103.444" y="46.926" display="inline" fill="#00B5F1" width="292.835" height="50"/>
	<rect x="104.064" y="62.845" display="inline" fill="none" width="292.215" height="37.644"/>

		<text transform="matrix(1 0 0 1 142.769 81.1333)" display="inline" fill="#FFFFFF" font-family="'RobotoCondensed-Regular'" font-size="24">EXPERTEN INTERVIEW</text>
</g>
<g id="INTERVIEW" display="none">
	<rect x="103.444" y="46.926" display="inline" fill="#00B5F1" width="292.835" height="50"/>
	<rect x="104.064" y="62.845" display="inline" fill="none" width="292.215" height="37.644"/>

		<text transform="matrix(1 0 0 1 142.769 81.1333)" display="inline" fill="#FFFFFF" font-family="'RobotoCondensed-Regular'" font-size="24">EXPERTEN INTERVIEW</text>
</g>
<g id="Icons">
	<g>
		<rect y="40.48" fill="none" width="399.605" height="36.807"/>
		<text transform="matrix(1 0 0 1 0 55.7197)" fill="#414042" font-family="'RobotoCondensed-Regular'" font-size="20">ENTWICKLUNGSBAR           METER</text>
	</g>
	<path fill="#00B5F1" d="M185.631,54.296c0-21.166-17.149-38.4-38.283-38.541c-0.087-0.014-0.175-0.029-0.261-0.029
		c-1.031,0-1.863,0.836-1.863,1.863s0.832,1.859,1.863,1.859c19.212,0,34.846,15.633,34.846,34.848s-15.634,34.846-34.846,34.846
		c-12.75,0-24.445-6.939-30.576-18.117c-0.274-0.688-0.942-1.176-1.724-1.176c-1.029,0-1.865,0.834-1.865,1.861
		c0,0.332,0.094,0.639,0.247,0.908l-0.002,0.002c6.75,12.471,19.749,20.221,33.917,20.221
		C168.338,92.841,185.631,75.55,185.631,54.296"/>
	<path fill="#00B5F1" d="M147.087,98.085c24.144,0,43.787-19.645,43.787-43.789c0-24.057-19.501-43.643-43.526-43.783
		c-0.087-0.014-0.175-0.026-0.261-0.026c-1.031,0-1.863,0.831-1.863,1.86c0,1.027,0.832,1.859,1.863,1.859
		c22.104,0,40.086,17.984,40.086,40.09c0,22.107-17.981,40.088-40.086,40.088c-7.295,0-14.431-1.975-20.645-5.717
		c-0.307-0.221-0.68-0.354-1.084-0.354c-1.029,0-1.863,0.83-1.863,1.859c0,0.725,0.418,1.344,1.018,1.652
		C131.309,95.917,139.111,98.085,147.087,98.085"/>
	<path fill="#00B5F1" d="M196.117,54.296c0-26.947-21.854-48.885-48.769-49.026c-0.087-0.013-0.175-0.027-0.261-0.027
		c-1.031,0-1.863,0.833-1.863,1.86c0,1.028,0.832,1.863,1.863,1.863c24.994,0,45.328,20.332,45.328,45.33
		c0,24.928-20.225,45.219-45.127,45.328c-0.067-0.006-0.136-0.02-0.201-0.02c-1.031,0-1.863,0.832-1.863,1.859
		c0,1.029,0.832,1.863,1.863,1.863C174.123,103.328,196.117,81.332,196.117,54.296"/>
	<path fill="#00B5F1" d="M147.348,0.027C147.261,0.016,147.173,0,147.087,0c-1.031,0-1.863,0.834-1.863,1.863
		c0,1.027,0.832,1.861,1.863,1.861c27.883,0,50.57,22.687,50.57,50.572c0,14.822-6.463,28.83-17.74,38.467
		c-0.508,0.33-0.848,0.902-0.848,1.559c0,1.025,0.834,1.859,1.86,1.859c0.476,0,0.903-0.184,1.23-0.475l0.003,0.006
		c12.199-10.346,19.195-25.439,19.195-41.416C201.359,24.458,177.153,0.168,147.348,0.027"/>
	<path fill="#00B5F1" d="M147.087,24.691c16.322,0,29.604,13.281,29.604,29.605c0,16.322-13.281,29.605-29.604,29.605
		c-4.641,0-9.078-1.043-13.199-3.098l-0.008,0.021c-0.284-0.174-0.615-0.281-0.971-0.281c-1.026,0-1.861,0.834-1.861,1.863
		c0,0.838,0.561,1.541,1.324,1.771c4.6,2.268,9.549,3.42,14.715,3.42c18.361,0,33.302-14.939,33.302-33.303
		c0-18.273-14.799-33.158-33.041-33.299c-0.087-0.012-0.175-0.027-0.261-0.027c-1.031,0-1.863,0.832-1.863,1.863
		C145.224,23.859,146.056,24.691,147.087,24.691"/>
</g>
</svg>
